<svg xmlns="http://www.w3.org/2000/svg" viewBox="0 0 489 509" preserveAspectRatio="xMidYMid meet">
<g transform="translate(0,509) scale(0.1,-0.1)" fill="#ffffff" stroke="none">
<path d="M2339 4980 c-36 -11 -160 -68 -275 -128 -611 -318 -1013 -531 -1539
-813 -234 -125 -359 -261 -395 -429 -8 -40 -10 -334 -8 -1105 l3 -1050 26 -56
c29 -61 101 -148 163 -195 23 -17 113 -69 201 -114 413 -215 938 -493 960
-510 6 -4 42 -24 80 -45 39 -21 183 -102 320 -180 413 -236 457 -255 579 -255
95 0 158 27 471 203 44 24 98 54 120 67 22 12 78 44 125 70 239 136 608 335
979 529 443 231 492 263 559 369 65 101 62 50 62 1203 0 1012 -1 1049 -20
1110 -34 112 -122 225 -231 299 -55 38 -397 224 -766 418 -862 453 -1124 587
-1180 605 -81 26 -160 28 -234 7z m186 -225 c32 -9 109 -42 169 -74 61 -33
383 -203 716 -379 940 -497 991 -527 1064 -615 20 -24 48 -70 63 -103 l28 -59
3 -935 c2 -664 0 -952 -8 -995 -15 -80 -50 -137 -113 -184 -76 -57 -407 -235
-417 -225 -4 5 -35 77 -68 159 -78 194 -370 911 -423 1038 -23 53 -46 97 -53
97 -9 0 -522 -283 -533 -294 -3 -3 71 -187 189 -466 52 -124 120 -286 150
-360 31 -74 88 -212 127 -306 39 -95 71 -177 71 -183 0 -6 -20 -21 -44 -33
l-44 -21 -274 101 c-456 169 -483 180 -486 195 -2 8 1 18 6 21 12 7 463 113
520 122 47 7 62 26 53 63 -13 48 -24 47 -302 -18 -145 -34 -273 -64 -285 -66
-13 -3 -28 3 -40 16 -23 25 -78 54 -121 63 -39 9 -99 -7 -144 -37 -38 -25 -79
-97 -79 -138 0 -26 -6 -29 -172 -85 -95 -31 -251 -84 -346 -117 -161 -56 -174
-62 -190 -93 l-17 -33 -32 16 c-18 8 -33 20 -33 26 0 6 31 92 69 192 39 99 92
241 120 315 27 74 54 148 60 163 14 36 34 42 -308 -99 -352 -147 -363 -148
-111 -14 85 45 220 117 300 160 80 43 287 153 460 245 173 92 347 184 385 205
83 45 750 400 917 489 65 34 120 65 122 69 6 10 -29 96 -282 690 -115 270
-208 492 -206 492 8 0 320 -144 332 -153 6 -5 12 -25 12 -45 0 -46 34 -117 69
-142 65 -46 169 -45 235 2 l28 20 62 -27 c33 -14 113 -52 176 -84 107 -54 115
-60 112 -84 -2 -15 8 -51 21 -80 18 -40 36 -61 71 -83 l46 -29 0 -396 0 -397
-29 -12 c-40 -16 -76 -57 -99 -111 l-20 -45 -123 -12 c-67 -7 -125 -14 -127
-17 -7 -7 6 -48 21 -69 13 -18 19 -19 98 -8 132 19 152 17 177 -18 12 -16 40
-40 62 -52 l40 -23 0 -229 c0 -251 3 -266 60 -266 49 0 50 7 50 262 0 186 3
238 13 238 24 0 90 63 108 104 24 52 24 100 0 152 -18 41 -84 104 -108 104
-10 0 -13 83 -13 399 l0 399 38 19 c20 11 50 38 66 61 76 108 21 246 -112 282
-49 13 -88 7 -148 -23 l-41 -19 -176 82 c-173 81 -177 84 -177 114 -1 47 -34
110 -75 142 -30 22 -50 29 -100 32 -55 4 -70 0 -114 -24 l-51 -27 -173 77
c-94 42 -197 89 -227 104 l-54 27 -62 153 c-67 166 -105 223 -184 283 -121 90
-271 98 -413 22 -64 -35 -140 -121 -165 -187 -34 -87 -65 -169 -301 -791 -152
-403 -313 -825 -349 -920 -17 -44 -62 -161 -101 -260 -38 -99 -144 -376 -236
-615 -92 -239 -170 -438 -174 -442 -3 -4 -109 50 -236 120 -246 136 -320 193
-346 269 -11 31 -14 219 -14 1018 l0 980 27 57 c32 69 92 136 173 193 74 52
405 232 1125 610 113 59 270 143 350 185 371 199 394 206 515 175z m9 -499
c60 -35 90 -93 84 -162 -13 -156 -203 -217 -307 -98 -35 39 -55 103 -46 144 9
42 58 104 96 123 51 25 124 22 173 -7z m-16 -1106 c27 -63 88 -201 136 -306
47 -105 86 -195 86 -200 0 -5 -62 -37 -138 -71 -75 -34 -208 -95 -295 -134
l-158 -73 -107 -178 c-108 -180 -146 -237 -155 -228 -17 18 38 155 321 800 71
162 148 344 170 404 23 60 47 113 54 117 20 13 33 -7 86 -131z m-205 -2164
c45 -34 84 -48 139 -47 52 0 80 11 119 48 l26 24 204 -76 c112 -42 265 -99
339 -127 74 -28 136 -52 138 -53 2 -2 -43 -29 -100 -61 -57 -31 -157 -87 -223
-124 -403 -225 -414 -230 -511 -230 -101 0 -91 -5 -639 308 -110 62 -204 117
-209 122 -4 4 2 14 15 21 28 15 638 218 657 219 7 0 28 -11 45 -24z"/>
<path d="M1641 4199 c-51 -15 -79 -38 -106 -84 -35 -58 -35 -138 0 -189 l25
-37 -148 -249 c-81 -137 -156 -260 -167 -273 l-20 -25 -152 30 -152 30 -6 32
c-32 154 -244 198 -341 70 -38 -49 -45 -134 -16 -190 23 -44 43 -65 90 -88
l32 -17 0 -329 c0 -320 -1 -329 -20 -335 -33 -10 -80 -55 -100 -96 -44 -86
-14 -189 72 -244 l47 -30 0 -346 c1 -322 2 -347 19 -362 23 -21 67 -21 144 -2
90 24 168 61 168 81 0 15 -9 16 -75 11 -41 -4 -93 -10 -115 -13 l-40 -7 0 311
c0 171 3 317 6 326 3 9 11 16 18 16 25 0 85 62 101 105 23 58 16 135 -15 177
-19 26 -21 34 -11 56 7 14 90 156 185 316 96 160 184 310 197 333 13 24 30 43
37 43 8 0 82 -14 165 -31 l151 -31 18 22 c11 13 18 35 16 49 -3 23 -10 26
-143 54 -77 16 -143 32 -147 36 -4 3 61 121 145 261 l152 255 55 5 c90 9 145
53 170 137 40 133 -100 263 -239 222z m-606 -920 c131 -27 137 -29 133 -43 -2
-7 -88 -156 -193 -331 l-190 -319 -3 309 c-3 309 -3 310 19 325 12 8 38 31 58
51 22 22 43 34 56 32 11 -1 65 -12 120 -24z"/>
<path d="M2747 2062 c-83 -50 -122 -79 -114 -84 20 -11 330 -99 334 -94 4 3
-71 218 -85 242 -5 10 -38 -5 -135 -64z"/>
</g>
</svg>
